<mxfile host="app.diagrams.net" modified="2024-05-31T09:51:35.877Z" agent="Mozilla/5.0 (Windows NT 10.0; Win64; x64) AppleWebKit/537.36 (KHTML, like Gecko) Chrome/125.0.0.0 Safari/537.36 Edg/125.0.0.0" version="24.4.10" etag="KfEXtvqD9mw3SkY33-bt" type="github">
  <diagram name="第 1 页" id="IPyZK0bux-thjWqxslcY">
    <mxGraphModel>
      <root>
        <mxCell id="0" />
        <mxCell id="1" parent="0" />
      </root>
    </mxGraphModel>
  </diagram>
</mxfile>
